<?xml version="1.0" encoding="UTF-8"?> <svg xmlns="http://www.w3.org/2000/svg" width="237" height="105" viewBox="0 0 237 105" fill="none"><g clip-path="url(#clip0_1829_317)"><path d="M65.996 58.7541V70.4094H61.1074V42.7256H69.5306C75.0952 42.7256 78.5534 45.6305 78.5534 50.9099C78.5534 54.945 75.8457 57.9247 71.3352 58.5654L80.2835 70.4075H74.3428L65.996 58.7523V58.7541ZM69.268 54.8684C71.9758 54.8684 73.555 53.3216 73.555 50.908C73.555 48.4944 71.9758 46.9849 69.268 46.9849H65.996V54.8684H69.268Z" fill="white"></path><path d="M81.1108 56.5659C81.1108 48.1183 87.3905 42.1963 95.3984 42.1963C103.406 42.1963 109.686 48.1183 109.686 56.5659C109.686 65.0136 103.406 70.9356 95.3984 70.9356C87.3905 70.9356 81.1108 65.0136 81.1108 56.5659ZM95.3984 66.2204C100.55 66.2204 104.609 62.2973 104.609 56.5659C104.609 50.8345 100.55 46.8722 95.3984 46.8722C90.2473 46.8722 86.1875 50.8326 86.1875 56.5659C86.1875 62.2992 90.21 66.2204 95.3984 66.2204Z" fill="white"></path><path d="M113.165 42.7256H121.437C127.076 42.7256 130.611 45.4026 130.611 49.9291C130.611 52.7201 129.294 54.7937 127.001 55.8884C129.897 56.8692 131.551 59.2081 131.551 62.4511C131.551 67.3158 127.866 70.4094 122.227 70.4094H113.165V42.7256ZM121.774 54.0408C124.331 54.0408 125.834 52.6827 125.834 50.5325C125.834 48.3823 124.331 47.0634 121.774 47.0634H118.051V54.0408H121.774ZM122.225 66.0716C124.97 66.0716 126.586 64.7135 126.586 62.1859C126.586 59.6583 124.97 58.3394 122.111 58.3394H118.051V66.0716H122.225Z" fill="white"></path><path d="M133.995 56.5665C133.995 48.1188 140.274 42.1968 148.282 42.1968C156.29 42.1968 162.57 48.1188 162.57 56.5665C162.57 65.0141 156.29 70.9361 148.282 70.9361C140.274 70.9361 133.995 65.0141 133.995 56.5665ZM148.282 66.2209C153.433 66.2209 157.493 62.2979 157.493 56.5665C157.493 50.835 153.431 46.8727 148.282 46.8727C143.133 46.8727 139.071 50.8332 139.071 56.5665C139.071 62.2997 143.094 66.2209 148.282 66.2209ZM149.975 33.5586H155.351L150.089 39.7813H145.99L149.975 33.5586Z" fill="white"></path><path d="M169.448 47.2894H162.832V42.7256H180.954V47.2894H174.337V70.4094H169.448V47.2894Z" fill="white"></path><path d="M184.107 42.7256H188.996V70.4094H184.107V42.7256Z" fill="white"></path><path d="M192.232 56.5657C192.232 48.118 198.324 42.3848 206.819 42.3848C208.06 42.3848 209.451 42.4987 210.767 42.7248V47.2512C209.564 47.0252 208.324 46.8739 207.121 46.8739C201.218 46.8739 197.307 50.7204 197.307 56.5676C197.307 62.4148 201.218 66.2613 207.121 66.2613C208.324 66.2613 209.564 66.11 210.767 65.8839V70.4104C209.451 70.6365 208.06 70.7504 206.819 70.7504C198.322 70.7504 192.232 65.0171 192.232 56.5695V56.5657Z" fill="white"></path><path d="M222.787 42.7256H227.562L237 70.4094H231.886L230.269 65.3934H220.042L218.462 70.4094H213.425L222.787 42.7256ZM228.915 61.1304L225.118 49.4004L221.395 61.1304H228.915Z" fill="white"></path><path d="M60.8726 90.8187C60.8726 82.371 66.9641 76.6377 75.4618 76.6377C76.7021 76.6377 78.0932 76.7517 79.4099 76.9777V81.5042C78.2068 81.2781 76.9666 81.1268 75.7635 81.1268C69.86 81.1268 65.9511 84.9733 65.9511 90.8205C65.9511 96.6678 69.8619 100.514 75.7635 100.514C76.9666 100.514 78.2068 100.363 79.4099 100.137V104.663C78.0932 104.889 76.7021 105.003 75.4618 105.003C66.9641 105.003 60.8726 99.2701 60.8726 90.8224V90.8187Z" fill="white"></path><path d="M91.186 76.9775H95.9609L105.399 104.661H100.285L98.6687 99.6454H88.441L86.8617 104.661H81.8242L91.186 76.9775ZM97.3148 95.3823L93.5176 83.6524L89.7949 95.3823H97.3148Z" fill="white"></path><path d="M107.991 76.9755H116.3C122.127 76.9755 125.776 80.2186 125.776 85.5745C125.776 90.9304 122.129 94.0222 116.3 94.0222H112.879V104.657H107.991V76.9736V76.9755ZM116.3 89.5349C119.157 89.5349 120.813 88.0647 120.813 85.5745C120.813 83.0843 119.159 81.5767 116.3 81.5767H112.879V89.5349H116.3Z" fill="white"></path><path d="M128.579 76.9756H133.467V104.659H128.579V76.9756Z" fill="white"></path><path d="M136.678 76.9775H141.566V100.097H151.643V104.661H136.68V76.9775H136.678Z" fill="white"></path><path d="M163.13 76.9756H167.905L177.343 104.659H172.229L170.613 99.6435H160.385L158.806 104.659H153.768L163.13 76.9756ZM169.259 95.3804L165.461 83.6504L161.739 95.3804H169.259Z" fill="white"></path><path d="M184.582 93.0071V104.662H179.693V76.9785H188.115C193.679 76.9785 197.139 79.8835 197.139 85.1628C197.139 89.1979 194.432 92.1776 189.921 92.8184L198.869 104.66H192.929L184.582 93.0052V93.0071ZM187.852 89.1213C190.56 89.1213 192.139 87.5745 192.139 85.1609C192.139 82.7473 190.56 81.2378 187.852 81.2378H184.582V89.1213H187.852Z" fill="white"></path><path d="M60.8726 29.5319C60.8726 25.1586 64.1334 22.1846 68.3162 22.1846C69.0034 22.1846 69.6719 22.263 70.279 22.362V23.5838C69.6905 23.4848 69.0611 23.4063 68.413 23.4063C64.8001 23.4063 62.2469 25.947 62.2469 29.5338C62.2469 33.1206 64.8001 35.6799 68.413 35.6799C69.0611 35.6799 69.6905 35.6015 70.279 35.5025V36.7242C69.6701 36.8232 69.0034 36.9017 68.3162 36.9017C64.1334 36.9017 60.8726 33.9276 60.8726 29.5338V29.5319Z" fill="#AFAFAF"></path><path d="M72.0093 21.5732H73.2663V36.7424H72.0093V21.5732Z" fill="#AFAFAF"></path><path d="M77.9004 21.5732H79.4517L76.7029 24.6276H75.4272L77.9022 21.5732H77.9004ZM75.6414 26.3407H76.8985V36.7424H75.6414V26.3407Z" fill="#AFAFAF"></path><path d="M83.0657 26.1445C85.5202 26.1445 86.9747 27.7399 86.9747 30.458V36.7424H85.7176V30.4973C85.7176 28.4479 84.7753 27.3457 83.0657 27.3457C81.3561 27.3457 80.4138 28.4498 80.4138 30.4973V36.7424H79.1567V30.458C79.1567 27.7399 80.5907 26.1445 83.0657 26.1445Z" fill="#AFAFAF"></path><path d="M89.2319 21.5732H90.489V24.3698H89.2319V21.5732ZM89.2319 26.3407H90.489V36.7424H89.2319V26.3407Z" fill="#AFAFAF"></path><path d="M92.2178 31.5617C92.2178 28.4289 94.4172 26.2432 97.4806 26.2432C97.9518 26.2432 98.5403 26.3029 99.1493 26.4001V27.5826C98.4826 27.4836 97.9704 27.4444 97.598 27.4444C95.1434 27.4444 93.4935 29.1388 93.4935 31.5617C93.4935 33.9847 95.1434 35.6585 97.598 35.6585C97.9704 35.6585 98.4826 35.6193 99.1493 35.5203V36.7028C98.5403 36.8205 97.9518 36.8803 97.4806 36.8803C94.4172 36.8803 92.2178 34.674 92.2178 31.5617Z" fill="#AFAFAF"></path><path d="M99.7983 31.5621C99.7983 28.39 102.076 26.1445 104.923 26.1445C106.672 26.1445 108.203 26.9908 108.911 28.291V26.3407H110.069V36.7424H108.911V34.8126C108.203 36.1129 106.672 36.9404 104.923 36.9404C102.076 36.9404 99.7983 34.695 99.7983 31.5621ZM105.061 35.7392C107.162 35.7392 108.929 34.2821 108.929 31.5621C108.929 28.8421 107.162 27.3457 105.061 27.3457C102.763 27.3457 101.074 29.1186 101.074 31.5621C101.074 34.0056 102.763 35.7392 105.061 35.7392Z" fill="#AFAFAF"></path><path d="M10.9111 31.5234L11.8553 45.3625C12.0267 47.8751 13.3694 50.1505 15.5464 51.6207C20.5839 55.0207 27.4484 55.428 33.2625 52.6744L33.9962 52.3269L23.9584 36.6383C21.3493 32.5621 16.1461 30.5221 10.9111 31.5234Z" fill="white"></path><path d="M10.9932 47.6133C13.0882 52.1061 17.6248 55.5192 24.0497 55.4165L17.0121 70.4287C9.14389 69.2798 3.37076 65.1419 0 57.5816L10.9932 47.6133Z" fill="white"></path><path d="M11.3267 29.9654L23.6681 13.5801L26.1208 16.3729C27.97 18.4783 28.2885 21.4169 26.9439 23.9519L22.3701 33.2085C19.2805 30.5072 17.0272 29.6983 11.3267 29.9673V29.9654Z" fill="white"></path><path d="M28.5039 41.4511L35.0145 51.7688L42.0745 47.969C40.8137 42.9568 39.43 41.3316 35.9196 39.6689L28.5039 41.4511Z" fill="white"></path><path d="M24.3779 13.0702C24.3779 13.0702 28.9815 15.8668 28.6854 20.7763L31.0245 21.2358C35.615 22.1381 40.4682 20.1953 43.014 16.4347L24.3779 13.0684V13.0702Z" fill="white"></path><path d="M37.1899 39.144L38.2906 35.0061C38.8735 32.8166 40.7637 31.0625 43.1586 30.4852L44.6894 30.1172L42.9854 47.218C42.6428 43.1418 40.2311 40.0986 37.1899 39.1421V39.144Z" fill="white"></path><path d="M15.9819 22.0506L22.5968 13.4199C21.621 12.0188 19.727 10.7578 18.0901 10.8736L15.9819 22.0506Z" fill="white"></path><path d="M18.435 9.9761L27.1114 1.87402L27.3926 2.29435C28.7149 4.26896 28.672 6.86006 27.2846 8.78983L22.9753 12.6176C22.9045 12.2533 19.9919 9.68467 18.4331 9.9761H18.435Z" fill="white"></path><path d="M18.5742 8.9913L22.5409 5.19713C23.5968 4.18647 23.6844 2.52571 22.7402 1.41044L21.5464 0L18.5742 8.9913Z" fill="white"></path><path d="M102.506 4.85874C97.5413 4.48138 92.5448 4.47204 87.5855 4.93347C83.4065 5.32204 79.2554 6.045 75.2068 7.15841C71.782 8.09995 68.4336 9.31797 65.2193 10.833C62.5264 12.1015 59.9303 13.5773 57.4721 15.2567C55.4869 16.6149 53.5892 18.1075 51.8144 19.7328C50.4177 21.0106 49.0862 22.3724 47.857 23.8128C46.8048 25.0439 45.9798 26.5589 44.5403 27.394C42.4936 28.5821 38.7057 28.2421 38.5977 25.268C38.5176 23.03 40.4078 21.429 41.9871 20.1662C43.367 19.064 44.7973 18.0253 46.261 17.0389C48.4697 15.55 50.7566 14.1788 53.1031 12.9235C56.0735 11.3337 59.1426 9.93071 62.288 8.72577C65.9642 7.31907 69.7446 6.18511 73.5903 5.3538C77.9276 4.416 82.3487 3.86116 86.7828 3.71358C91.7533 3.54545 96.7368 3.88732 101.642 4.70929C101.925 4.756 102.218 4.83633 102.502 4.85874H102.506Z" fill="white"></path></g><defs><clipPath id="clip0_1829_317"><rect width="237" height="105" fill="white"></rect></clipPath></defs></svg> 