<?xml version="1.0" encoding="UTF-8"?> <svg xmlns="http://www.w3.org/2000/svg" width="201" height="89" viewBox="0 0 201 89" fill="none"><g clip-path="url(#clip0_1829_96)"><path d="M55.9712 49.8014V59.6806H51.8252V36.2153H58.9689C63.6882 36.2153 66.6212 38.6776 66.6212 43.1525C66.6212 46.5727 64.3247 49.0984 60.4994 49.6415L68.0885 59.6791H63.0501L55.9712 49.7998V49.8014ZM58.7462 46.5078C61.0427 46.5078 62.382 45.1967 62.382 43.1509C62.382 41.1051 61.0427 39.8256 58.7462 39.8256H55.9712V46.5078H58.7462Z" fill="#295581"></path><path d="M68.79 47.9471C68.79 40.7867 74.1158 35.7671 80.9073 35.7671C87.6988 35.7671 93.0246 40.7867 93.0246 47.9471C93.0246 55.1075 87.6988 60.1271 80.9073 60.1271C74.1158 60.1271 68.79 55.1075 68.79 47.9471ZM80.9073 56.1304C85.276 56.1304 88.7191 52.8051 88.7191 47.9471C88.7191 43.089 85.276 39.7305 80.9073 39.7305C76.5387 39.7305 73.0955 43.0874 73.0955 47.9471C73.0955 52.8067 76.5071 56.1304 80.9073 56.1304Z" fill="#295581"></path><path d="M95.9746 36.2153H102.99C107.773 36.2153 110.771 38.4844 110.771 42.3212C110.771 44.6868 109.654 46.4445 107.71 47.3724C110.166 48.2037 111.568 50.1862 111.568 52.9351C111.568 57.0584 108.443 59.6806 103.66 59.6806H95.9746V36.2153ZM103.276 45.8064C105.445 45.8064 106.719 44.6552 106.719 42.8326C106.719 41.01 105.445 39.8921 103.276 39.8921H100.119V45.8064H103.276ZM103.658 56.0038C105.987 56.0038 107.357 54.8527 107.357 52.7102C107.357 50.5678 105.987 49.4499 103.562 49.4499H100.119V56.0038H103.658Z" fill="#295581"></path><path d="M113.641 47.9472C113.641 40.7868 118.966 35.7672 125.758 35.7672C132.549 35.7672 137.875 40.7868 137.875 47.9472C137.875 55.1076 132.549 60.1272 125.758 60.1272C118.966 60.1272 113.641 55.1076 113.641 47.9472ZM125.758 56.1305C130.127 56.1305 133.57 52.8053 133.57 47.9472C133.57 43.0892 130.125 39.7306 125.758 39.7306C121.391 39.7306 117.946 43.0876 117.946 47.9472C117.946 52.8069 121.358 56.1305 125.758 56.1305ZM127.194 28.4453H131.753L127.29 33.7198H123.814L127.194 28.4453Z" fill="#295581"></path><path d="M143.709 40.0837H138.098V36.2153H153.467V40.0837H147.855V59.6806H143.709V40.0837Z" fill="#295581"></path><path d="M156.142 36.2153H160.288V59.6806H156.142V36.2153Z" fill="#295581"></path><path d="M163.032 47.9473C163.032 40.7869 168.199 35.9272 175.404 35.9272C176.456 35.9272 177.636 36.0238 178.752 36.2154V40.0522C177.732 39.8606 176.68 39.7323 175.66 39.7323C170.653 39.7323 167.336 42.9926 167.336 47.9489C167.336 52.9051 170.653 56.1655 175.66 56.1655C176.68 56.1655 177.732 56.0372 178.752 55.8456V59.6823C177.636 59.8739 176.456 59.9705 175.404 59.9705C168.197 59.9705 163.032 55.1109 163.032 47.9505V47.9473Z" fill="#295581"></path><path d="M188.946 36.2153H192.995L201 59.6806H196.663L195.292 55.429H186.618L185.278 59.6806H181.006L188.946 36.2153ZM194.143 51.8156L190.923 41.873L187.766 51.8156H194.143Z" fill="#295581"></path><path d="M51.627 76.98C51.627 69.8196 56.7932 64.96 64.0001 64.96C65.052 64.96 66.2318 65.0566 67.3485 65.2482V69.0849C66.3282 68.8933 65.2763 68.765 64.256 68.765C59.2492 68.765 55.934 72.0254 55.934 76.9816C55.934 81.9378 59.2508 85.1982 64.256 85.1982C65.2763 85.1982 66.3282 85.0699 67.3485 84.8783V88.715C66.2318 88.9066 65.052 89.0032 64.0001 89.0032C56.7932 89.0032 51.627 84.1436 51.627 76.9832V76.98Z" fill="#295581"></path><path d="M77.3343 65.2466H81.3839L89.3884 88.7119H85.0513L83.6804 84.4603H75.0062L73.6669 88.7119H69.3945L77.3343 65.2466ZM82.5321 80.8468L79.3117 70.9043L76.1544 80.8468H82.5321Z" fill="#295581"></path><path d="M91.5869 65.2467H98.6343C103.576 65.2467 106.67 67.9956 106.67 72.5354C106.67 77.0752 103.578 79.6958 98.6343 79.6958H95.7329V88.7104H91.5869V65.2451V65.2467ZM98.6343 75.8923C101.057 75.8923 102.461 74.6461 102.461 72.5354C102.461 70.4246 101.059 69.1468 98.6343 69.1468H95.7329V75.8923H98.6343Z" fill="#295581"></path><path d="M109.048 65.2466H113.194V88.7119H109.048V65.2466Z" fill="#295581"></path><path d="M115.917 65.2466H120.063V84.8435H128.609V88.7119H115.919V65.2466H115.917Z" fill="#295581"></path><path d="M138.351 65.2466H142.4L150.405 88.7119H146.068L144.697 84.4603H136.023L134.683 88.7119H130.411L138.351 65.2466ZM143.549 80.8468L140.328 70.9043L137.171 80.8468H143.549Z" fill="#295581"></path><path d="M156.544 78.8341V88.7134H152.398V65.248H159.541C164.26 65.248 167.194 67.7103 167.194 72.1852C167.194 75.6055 164.898 78.1311 161.073 78.6742L168.662 88.7118H163.623L156.544 78.8326V78.8341ZM159.318 75.5405C161.614 75.5405 162.954 74.2294 162.954 72.1836C162.954 70.1378 161.614 68.8583 159.318 68.8583H156.544V75.5405H159.318Z" fill="#295581"></path><path d="M51.627 25.0329C51.627 21.326 54.3925 18.8052 57.9399 18.8052C58.5227 18.8052 59.0897 18.8717 59.6046 18.9556V19.9912C59.1055 19.9073 58.5717 19.8408 58.022 19.8408C54.9579 19.8408 52.7926 21.9943 52.7926 25.0345C52.7926 28.0748 54.9579 30.2441 58.022 30.2441C58.5717 30.2441 59.1055 30.1776 59.6046 30.0937V31.1292C59.0881 31.2132 58.5227 31.2797 57.9399 31.2797C54.3925 31.2797 51.627 28.7588 51.627 25.0345V25.0329Z" fill="#AFAFAF"></path><path d="M61.0713 18.2856H62.1374V31.1433H61.0713V18.2856Z" fill="#AFAFAF"></path><path d="M66.0672 18.2856H67.3829L65.0516 20.8746H63.9697L66.0688 18.2856H66.0672ZM64.1514 22.3266H65.2175V31.1433H64.1514V22.3266Z" fill="#AFAFAF"></path><path d="M70.448 22.1606C72.5297 22.1606 73.7632 23.5129 73.7632 25.8169V31.1436H72.6971V25.8501C72.6971 24.1131 71.8979 23.1788 70.448 23.1788C68.9981 23.1788 68.1989 24.1146 68.1989 25.8501V31.1436H67.1328V25.8169C67.1328 23.5129 68.349 22.1606 70.448 22.1606Z" fill="#AFAFAF"></path><path d="M75.6777 18.2856H76.7438V20.6561H75.6777V18.2856ZM75.6777 22.3266H76.7438V31.1433H75.6777V22.3266Z" fill="#AFAFAF"></path><path d="M78.21 26.7527C78.21 24.0973 80.0753 22.2446 82.6734 22.2446C83.073 22.2446 83.5721 22.2953 84.0886 22.3776V23.38C83.5231 23.296 83.0888 23.2628 82.7729 23.2628C80.6912 23.2628 79.2919 24.699 79.2919 26.7527C79.2919 28.8065 80.6912 30.2253 82.7729 30.2253C83.0888 30.2253 83.5231 30.192 84.0886 30.1081V31.1104C83.5721 31.2102 83.073 31.2609 82.6734 31.2609C80.0753 31.2609 78.21 29.3908 78.21 26.7527Z" fill="#AFAFAF"></path><path d="M84.6396 26.7527C84.6396 24.064 86.5713 22.1606 88.9862 22.1606C90.4693 22.1606 91.7676 22.878 92.3677 23.98V22.3269H93.3501V31.1436H92.3677V29.5079C91.7676 30.61 90.4693 31.3115 88.9862 31.3115C86.5713 31.3115 84.6396 29.4081 84.6396 26.7527ZM89.1031 30.2933C90.8847 30.2933 92.3835 29.0582 92.3835 26.7527C92.3835 24.4472 90.8847 23.1788 89.1031 23.1788C87.1541 23.1788 85.7215 24.6815 85.7215 26.7527C85.7215 28.8238 87.1541 30.2933 89.1031 30.2933Z" fill="#AFAFAF"></path><path d="M9.25391 26.7194L10.0547 38.4497C10.2 40.5794 11.3387 42.5081 13.1851 43.7543C17.4574 46.6362 23.2791 46.9814 28.2101 44.6473L28.8324 44.3528L20.3193 31.0549C18.1065 27.5998 13.6937 25.8707 9.25391 26.7194Z" fill="#295581"></path><path d="M9.32331 40.3574C11.1002 44.1656 14.9476 47.0586 20.3966 46.9715L14.428 59.6962C7.75495 58.7224 2.85875 55.215 0 48.8068L9.32331 40.3574Z" fill="#295581"></path><path d="M9.60645 25.3988L20.0733 11.5103L22.1533 13.8775C23.7217 15.6621 23.9918 18.1529 22.8514 20.3016L18.9724 28.1477C16.3521 25.858 14.441 25.1724 9.60645 25.4004V25.3988Z" fill="#295581"></path><path d="M24.1748 35.1356L29.6965 43.8811L35.684 40.6603C34.6148 36.4119 33.4413 35.0343 30.4641 33.625L24.1748 35.1356Z" fill="#295581"></path><path d="M20.6748 11.0778C20.6748 11.0778 24.5791 13.4482 24.328 17.6095L26.3118 17.9991C30.205 18.7639 34.321 17.1171 36.4801 13.9296L20.6748 11.0762V11.0778Z" fill="#295581"></path><path d="M31.541 33.1781L32.4745 29.6708C32.9688 27.815 34.5719 26.3281 36.6031 25.8388L37.9013 25.5269L36.4562 40.0219C36.1656 36.5667 34.1202 33.9873 31.541 33.1766V33.1781Z" fill="#295581"></path><path d="M13.5547 18.6911L19.1648 11.3755C18.3372 10.1879 16.7309 9.11904 15.3426 9.21721L13.5547 18.6911Z" fill="#295581"></path><path d="M15.6344 8.45585L22.9929 1.58838L23.2314 1.94466C24.3528 3.61838 24.3165 5.81464 23.1398 7.45035L19.485 10.6949C19.425 10.3861 16.9548 8.20883 15.6328 8.45585H15.6344Z" fill="#295581"></path><path d="M15.7529 7.6212L19.1171 4.40519C20.0126 3.54854 20.0869 2.14084 19.2861 1.19551L18.2737 0L15.7529 7.6212Z" fill="#295581"></path><path d="M86.9364 4.11881C82.7257 3.79895 78.4881 3.79103 74.2821 4.18214C70.7379 4.5115 67.2174 5.1243 63.7837 6.06805C60.8791 6.86611 58.0394 7.89853 55.3133 9.18271C53.0294 10.2579 50.8277 11.5088 48.7429 12.9323C47.0592 14.0835 45.4498 15.3487 43.9446 16.7263C42.7601 17.8094 41.6308 18.9638 40.5884 20.1846C39.696 21.2281 38.9963 22.5123 37.7754 23.2201C36.0396 24.2272 32.8271 23.939 32.7355 21.4181C32.6676 19.5211 34.2707 18.1641 35.61 17.0937C36.7804 16.1594 37.9934 15.279 39.2348 14.443C41.108 13.181 43.0475 12.0187 45.0376 10.9546C47.5568 9.60708 50.1596 8.4179 52.8273 7.39657C55.945 6.20422 59.1513 5.24306 62.4128 4.53842C66.0912 3.74353 69.8408 3.27324 73.6014 3.14814C77.8168 3.00563 82.0434 3.29541 86.2035 3.99213C86.4436 4.03171 86.6916 4.0998 86.9332 4.11881H86.9364Z" fill="#295581"></path></g><defs><clipPath id="clip0_1829_96"><rect width="201" height="89" fill="white"></rect></clipPath></defs></svg> 